<?xml version="1.0" standalone="no"?>
<!DOCTYPE svg PUBLIC "-//W3C//DTD SVG 20010904//EN"
 "http://www.w3.org/TR/2001/REC-SVG-20010904/DTD/svg10.dtd">
<svg version="1.0" xmlns="http://www.w3.org/2000/svg"
 width="512.000000pt" height="512.000000pt" viewBox="0 0 512.000000 512.000000"
 preserveAspectRatio="xMidYMid meet">

<g transform="translate(0.000000,512.000000) scale(0.100000,-0.100000)"
fill="#000000" stroke="none">
<path d="M323 4858 c4 -144 9 -198 25 -253 11 -38 20 -70 19 -71 -1 -1 -31
-16 -67 -34 -75 -38 -240 -148 -240 -161 0 -19 138 -235 190 -297 67 -80 172
-162 262 -205 l68 -32 -8 -35 c-4 -19 -7 -71 -7 -115 0 -67 -4 -85 -22 -108
-11 -15 -29 -47 -39 -71 -14 -34 -26 -46 -54 -56 -130 -47 -220 -184 -207
-320 7 -76 44 -158 96 -208 l41 -39 -110 -1024 c-60 -563 -112 -1043 -115
-1066 l-6 -43 138 0 c126 0 193 9 255 35 16 7 18 -2 18 -93 l0 -101 -189 -3
c-207 -3 -216 -6 -265 -72 -19 -25 -21 -42 -21 -166 0 -151 5 -167 69 -214 27
-21 37 -21 646 -21 609 0 619 0 646 21 64 47 69 63 69 214 0 124 -2 141 -21
166 -49 66 -58 69 -265 72 l-189 3 0 354 0 354 55 36 c63 42 173 158 181 191
3 12 -15 127 -41 255 -25 129 -47 240 -48 248 -1 8 28 24 78 43 416 153 780
442 1028 818 83 126 183 329 229 462 18 54 35 98 38 98 3 0 20 -44 38 -98 46
-133 146 -336 229 -462 242 -367 577 -639 987 -801 73 -29 120 -53 119 -61 -1
-7 -23 -118 -48 -247 -26 -128 -44 -243 -41 -255 8 -33 118 -149 181 -191 l55
-36 0 -354 0 -354 -189 -3 c-207 -3 -216 -6 -265 -72 -19 -25 -21 -42 -21
-166 0 -151 5 -167 69 -214 27 -21 37 -21 646 -21 609 0 619 0 646 21 64 47
69 63 69 214 0 124 -2 141 -21 166 -49 66 -58 69 -265 72 l-189 3 0 101 c0 91
2 100 18 93 62 -26 129 -35 255 -35 l138 0 -6 43 c-3 23 -55 503 -115 1066
l-110 1024 41 39 c64 62 94 136 94 233 0 73 -3 86 -36 145 -39 71 -104 128
-168 150 -28 9 -41 20 -49 44 -21 58 -72 124 -119 155 -41 27 -51 42 -83 118
-159 387 -440 704 -800 906 -292 164 -586 237 -957 237 l-148 0 -24 35 c-46
68 -163 125 -257 125 -124 0 -250 -90 -294 -210 -11 -28 -25 -41 -77 -66 l-63
-31 -64 31 c-53 26 -65 37 -76 68 -22 64 -80 129 -150 167 -60 33 -71 36 -150
36 -72 0 -92 -4 -136 -27 -54 -28 -97 -65 -130 -112 l-21 -29 -68 42 c-157 94
-309 131 -543 131 l-144 0 5 -182z m392 2 c57 -16 143 -50 193 -78 l43 -24
-51 -50 c-27 -27 -50 -53 -50 -58 0 -5 -30 -11 -67 -15 -66 -7 -181 -26 -235
-40 -25 -6 -28 -4 -43 47 -9 29 -19 95 -22 147 l-6 94 99 -6 c54 -4 117 -11
139 -17z m733 -7 c48 -36 65 -69 70 -134 l5 -62 -29 20 c-81 56 -186 57 -266
1 l-28 -19 0 45 c0 77 33 134 95 162 40 19 119 12 153 -13z m880 0 c48 -36 65
-69 70 -134 l5 -62 -29 20 c-81 56 -186 57 -266 1 l-28 -19 0 45 c0 77 33 134
95 162 40 19 119 12 153 -13z m605 -148 c561 -73 1035 -410 1287 -914 55 -109
58 -121 33 -121 -10 0 -42 -11 -72 -25 -30 -14 -55 -24 -56 -23 -1 2 -23 45
-49 97 -25 51 -74 134 -109 185 -77 114 -253 290 -372 375 -102 71 -292 167
-408 205 -87 28 -270 66 -322 66 -50 0 -82 15 -89 43 -3 14 -21 48 -40 76
l-35 51 59 0 c33 0 110 -7 173 -15z m-1771 -92 c-10 -16 -24 -43 -30 -62 -23
-66 -11 -144 30 -203 l19 -28 -46 0 c-59 0 -104 19 -138 59 -48 57 -48 145 0
202 34 40 75 58 136 59 l48 0 -19 -27z m505 10 c33 -15 34 -18 27 -52 -11 -47
-11 -137 -1 -178 7 -27 5 -32 -12 -38 -35 -11 -107 -91 -132 -147 -22 -49 -29
-56 -101 -92 -64 -32 -84 -38 -115 -33 -77 13 -125 70 -131 158 l-5 62 29 -20
c98 -68 212 -56 299 32 81 80 96 170 47 269 l-29 56 45 0 c24 0 60 -7 79 -17z
m375 -10 c-10 -16 -24 -43 -30 -62 -23 -66 -11 -144 30 -203 l19 -28 -46 0
c-59 0 -104 19 -138 59 -48 57 -48 145 0 202 34 40 75 58 136 59 l48 0 -19
-27z m525 1 c52 -39 68 -71 68 -134 0 -95 -54 -151 -154 -158 l-59 -4 29 57
c20 40 29 73 29 105 0 32 -9 65 -29 105 l-29 57 59 -4 c38 -3 69 -11 86 -24z
m-1152 -79 c50 -49 15 -135 -55 -135 -41 0 -80 39 -80 80 0 41 39 80 80 80 19
0 40 -9 55 -25z m880 0 c50 -49 15 -135 -55 -135 -41 0 -80 39 -80 80 0 41 39
80 80 80 19 0 40 -9 55 -25z m-1495 -73 c0 -34 30 -119 55 -156 13 -20 21 -36
17 -36 -4 0 -72 11 -152 25 -80 14 -146 25 -146 25 -4 0 -25 -153 -21 -156 4
-4 279 -54 299 -54 4 0 -5 -26 -20 -57 -24 -53 -33 -61 -90 -89 l-63 -31 -89
44 c-108 54 -209 143 -276 245 -55 82 -59 74 66 137 113 57 227 92 380 115 14
2 28 4 33 5 4 0 7 -7 7 -17z m2029 -782 c115 -606 529 -1106 1099 -1325 63
-25 73 -32 68 -49 -2 -12 -9 -47 -16 -78 l-11 -57 -57 20 c-254 93 -506 254
-702 450 -287 287 -476 655 -546 1064 -19 108 -32 505 -17 505 22 0 96 85 121
138 l27 57 6 -305 c5 -253 10 -325 28 -420z m251 668 c41 -11 103 -31 136 -45
l61 -24 6 -227 c4 -196 9 -241 30 -332 70 -291 189 -486 442 -721 33 -31 79
-76 102 -101 23 -25 65 -55 95 -69 48 -21 56 -29 85 -90 l33 -66 -18 -89 c-17
-84 -20 -89 -43 -87 -47 5 -304 142 -399 213 -333 250 -547 595 -626 1010 -11
60 -17 169 -21 372 l-5 287 23 -6 c13 -3 58 -14 99 -25z m-911 -96 c57 -20
113 -14 176 17 l57 29 -4 -59 c-7 -100 -63 -154 -158 -154 -96 0 -151 54 -158
156 l-5 62 29 -20 c16 -11 44 -25 63 -31z m-310 -54 c54 -26 71 -40 80 -64 19
-53 70 -120 112 -150 23 -16 71 -38 108 -50 61 -19 67 -24 75 -56 26 -104 -52
-198 -167 -198 l-44 0 29 56 c49 99 34 189 -47 269 -87 87 -201 100 -297 33
l-28 -19 0 45 c0 24 5 57 10 72 11 29 74 94 91 94 6 0 41 -15 78 -32z m1790
-172 c150 -144 255 -294 326 -468 47 -113 46 -118 -21 -147 -66 -29 -136 -97
-161 -157 -10 -24 -21 -44 -25 -44 -13 0 -119 138 -168 220 -108 179 -149 334
-157 584 l-6 179 64 -44 c35 -23 101 -79 148 -123z m-2518 -5 c29 -29 70 -58
103 -72 57 -23 60 -27 50 -66 -6 -22 -7 -23 -33 -4 -78 54 -184 54 -263 -1
l-28 -19 0 46 c0 26 7 62 16 81 18 39 68 84 91 84 9 0 37 -22 64 -49z m1339
-196 c-46 -453 -239 -861 -559 -1182 -195 -197 -447 -359 -703 -452 l-57 -20
-11 57 c-7 31 -14 66 -16 78 -5 17 5 24 68 49 504 195 905 629 1053 1142 19
64 33 92 61 121 57 58 88 134 89 217 0 39 -3 81 -7 95 -5 22 0 29 40 56 l47
31 3 -41 c2 -23 -1 -90 -8 -151z m-828 148 c-10 -16 -24 -43 -30 -62 -23 -66
-11 -144 30 -203 l19 -28 -46 0 c-59 0 -104 19 -138 59 -48 57 -48 145 0 202
34 40 75 58 136 59 l48 0 -19 -27z m253 -78 c50 -49 15 -135 -55 -135 -41 0
-80 39 -80 80 0 41 39 80 80 80 19 0 40 -9 55 -25z m-973 -82 c-22 -33 -42
-87 -42 -117 0 -20 -5 -21 -80 -21 -88 0 -91 3 -69 62 24 65 83 102 162 103
l48 0 -19 -27z m253 -78 c50 -49 15 -135 -55 -135 -41 0 -80 39 -80 80 0 41
39 80 80 80 19 0 40 -9 55 -25z m594 -123 c57 -20 113 -14 176 17 l57 29 -4
-59 c-7 -100 -63 -154 -158 -154 -96 0 -151 54 -158 156 l-5 62 29 -20 c16
-11 44 -25 63 -31z m-325 -53 c14 -13 -51 -39 -97 -39 l-44 0 26 53 26 54 40
-30 c22 -17 44 -34 49 -38z m-556 -66 c48 -36 65 -69 70 -134 l5 -62 -29 20
c-81 56 -186 57 -266 1 l-28 -19 0 45 c0 77 33 134 95 162 40 19 119 12 153
-13z m3520 0 c48 -36 65 -69 70 -134 l5 -62 -29 20 c-81 56 -186 57 -266 1
l-28 -19 0 45 c0 77 33 134 95 162 40 19 119 12 153 -13z m-3133 -89 c-7 -41
-21 -51 -44 -30 -9 8 -41 26 -71 40 -51 23 -53 25 -24 25 17 1 55 13 85 29
l54 27 3 -29 c2 -16 1 -44 -3 -62z m332 -20 c65 -67 140 -99 233 -99 56 0 87
6 123 22 26 12 47 19 47 16 0 -4 -19 -40 -41 -82 -123 -223 -284 -406 -490
-553 -88 -63 -327 -187 -368 -191 -23 -2 -26 3 -43 86 l-18 89 32 67 c29 61
37 69 83 89 75 33 117 72 156 144 31 58 34 70 34 153 1 83 3 94 33 145 18 30
35 64 38 75 4 16 78 62 133 83 3 1 24 -19 48 -44z m-1005 -131 c-55 -80 -55
-186 0 -265 l19 -28 -46 0 c-59 0 -104 19 -138 59 -48 57 -48 145 0 202 34 40
75 58 136 59 l48 0 -19 -27z m525 1 c52 -39 68 -71 68 -134 0 -95 -54 -151
-154 -158 l-59 -4 29 57 c20 40 29 73 29 105 0 32 -9 65 -29 105 l-29 57 59
-4 c38 -3 69 -11 86 -24z m2995 -1 c-10 -16 -24 -43 -30 -62 -23 -66 -11 -144
30 -203 l19 -28 -46 0 c-59 0 -104 19 -138 59 -48 57 -48 145 0 202 34 40 75
58 136 59 l48 0 -19 -27z m525 1 c52 -39 68 -71 68 -134 0 -95 -54 -151 -154
-158 l-59 -4 29 57 c20 40 29 73 29 105 0 32 -9 65 -29 105 l-29 57 59 -4 c38
-3 69 -11 86 -24z m-3792 -79 c50 -49 15 -135 -55 -135 -41 0 -80 39 -80 80 0
41 39 80 80 80 19 0 40 -9 55 -25z m3520 0 c16 -15 25 -36 25 -55 0 -19 -9
-40 -25 -55 -15 -16 -36 -25 -55 -25 -19 0 -40 9 -55 25 -16 15 -25 36 -25 55
0 19 9 40 25 55 15 16 36 25 55 25 19 0 40 -9 55 -25z m-3646 -283 c57 -20
113 -14 176 17 l57 29 -4 -59 c-7 -100 -63 -154 -158 -154 -96 0 -151 54 -158
156 l-5 62 29 -20 c16 -11 44 -25 63 -31z m3520 0 c57 -20 113 -14 176 17 l57
29 -4 -59 c-7 -100 -63 -154 -158 -154 -96 0 -151 54 -158 156 l-5 62 29 -20
c16 -11 44 -25 63 -31z m-3618 -282 c5 0 9 -285 9 -748 0 -856 3 -820 -80
-902 -51 -52 -119 -80 -193 -80 l-40 0 5 38 c3 20 47 431 99 914 l94 876 48
-49 c26 -27 52 -49 58 -49z m4065 -837 c52 -485 94 -884 94 -887 0 -12 -78 -6
-129 10 -39 11 -67 29 -101 64 -83 82 -80 47 -80 899 l0 746 30 20 c17 11 43
36 58 55 l27 35 3 -30 c2 -16 46 -427 98 -912z m-3686 292 c55 -275 100 -508
100 -518 0 -49 -161 -157 -262 -176 l-48 -8 0 596 0 597 53 10 c28 5 53 7 54
4 2 -3 48 -230 103 -505z m3310 -106 l0 -597 -62 14 c-34 8 -84 27 -111 42
-61 33 -137 105 -137 129 0 10 45 245 101 523 l101 505 54 -9 54 -10 0 -597z
m-3440 -1074 l0 -325 -80 0 -80 0 0 165 c0 162 0 165 29 222 35 69 50 129 51
200 0 54 6 61 53 62 l27 1 0 -325z m3424 319 c12 -4 16 -20 16 -58 1 -70 16
-130 51 -199 29 -57 29 -60 29 -222 l0 -165 -80 0 -80 0 0 325 0 325 24 0 c13
0 31 -3 40 -6z m-2944 -884 l0 -80 -560 0 -560 0 0 80 0 80 560 0 560 0 0 -80z
m3520 0 l0 -80 -560 0 -560 0 0 80 0 80 560 0 560 0 0 -80z"/>
</g>
</svg>
