<?xml version="1.0" encoding="UTF-8"?>
<svg version="1.1" xmlns="http://www.w3.org/2000/svg" width="143" height="143" viewBox="0 0 512 512">
<path d="M0 0 C7.28208377 2.4983527 12.10394215 2.1520402 19.22265625 -0.18359375 C19.97675781 -0.41820312 20.73085938 -0.6528125 21.5078125 -0.89453125 C24.50740517 -1.83223695 27.49123902 -2.81478801 30.47265625 -3.80859375 C32.69852652 -3.95566523 34.92962018 -4.02965707 37.16015625 -4.05859375 C38.33964844 -4.084375 39.51914062 -4.11015625 40.734375 -4.13671875 C48.62784637 -3.44387487 54.12222327 -0.00750695 60.28515625 4.75390625 C61.58308409 5.73470492 62.88125199 6.715186 64.1796875 7.6953125 C64.74147705 8.12658447 65.3032666 8.55785645 65.88208008 9.00219727 C71.10703209 12.90868096 75.7132216 13.26386178 82.09765625 13.12890625 C91.69987466 13.0408125 101.53410667 13.87017537 108.97265625 20.37890625 C114.29086019 26.36188568 118.53790587 32.76413844 122.56640625 39.67578125 C126.2140636 44.489493 131.29640567 46.67057882 136.69067383 49.03076172 C145.63346186 52.95177735 152.62292862 56.33673788 156.58203125 65.73046875 C158.71039069 71.22258873 159.13940198 76.35317212 159.41015625 82.19140625 C159.97382619 90.22620442 160.79439841 96.44204468 165.47265625 103.19140625 C166.70349016 105.12784753 167.93259782 107.0653869 169.16015625 109.00390625 C169.74152344 109.87660156 170.32289063 110.74929687 170.921875 111.6484375 C174.98486103 118.31091585 175.5621858 124.50648026 174.47265625 132.19140625 C172.60996849 137.1514163 170.1599781 141.63370839 167.47265625 146.19140625 C166.59867187 147.67640625 166.59867187 147.67640625 165.70703125 149.19140625 C164.70049835 150.87221847 163.67931849 152.5444436 162.63671875 154.203125 C160.74154278 157.44018731 160.30967067 160.27185277 160.078125 163.9453125 C159.97467773 165.35200195 159.97467773 165.35200195 159.86914062 166.78710938 C159.73179047 168.73696816 159.60389919 170.68752058 159.48632812 172.63867188 C158.89914095 180.27210518 157.43619114 187.41850258 152.61328125 193.55859375 C151.989375 194.05617187 151.36546875 194.55375 150.72265625 195.06640625 C150.1090625 195.57945312 149.49546875 196.0925 148.86328125 196.62109375 C146.47265625 198.19140625 146.47265625 198.19140625 144.49633789 198.91625977 C142.18914534 199.80664993 140.40889546 200.64434737 138.47265625 202.19140625 C137.03203091 205.4858174 136.76713214 208.82336718 136.41015625 212.37890625 C136.12141338 214.47026041 135.82153393 216.56010103 135.51171875 218.6484375 C135.35219727 219.72947754 135.19267578 220.81051758 135.02832031 221.92431641 C128.2900126 261.54296042 109.19059589 300.39558361 86.47265625 333.19140625 C85.81265625 334.18140625 85.15265625 335.17140625 84.47265625 336.19140625 C85.23449219 336.57619141 85.23449219 336.57619141 86.01171875 336.96875 C92.92956785 340.81631776 96.96013553 345.64793582 99.47265625 353.1953125 C101.62281152 361.45480319 102.62989609 369.54781228 102.67578125 378.0625 C102.68148132 378.90249039 102.6871814 379.74248077 102.6930542 380.60792542 C102.70246065 382.38207764 102.70902076 384.15624699 102.71289062 385.93041992 C102.72251548 388.59000916 102.75354664 391.24879737 102.78515625 393.90820312 C102.87728925 408.58224448 102.49220595 424.85093302 93.47265625 437.19140625 C88.57571828 441.46536099 84.72950765 441.76174679 78.53515625 441.56640625 C77.76236328 441.56511719 76.98957031 441.56382812 76.19335938 441.5625 C71.27984855 441.48773821 67.13356843 440.74297489 62.47265625 439.19140625 C63.10171875 440.29355469 63.73078125 441.39570313 64.37890625 442.53125 C68.8021092 450.34629867 73.08988701 458.18644151 76.91015625 466.31640625 C77.22726562 466.98921631 77.544375 467.66202637 77.87109375 468.35522461 C84.46362176 482.61722525 84.46362176 482.61722525 83.47265625 488.19140625 C79.30806266 492.92125406 74.263911 496.6109836 69.28515625 500.44140625 C68.46595703 501.07820313 67.64675781 501.715 66.80273438 502.37109375 C58.37268862 508.89310446 58.37268862 508.89310446 51.47265625 508.19140625 C47.03846111 504.86575989 45.35117982 501.233759 43.47265625 496.19140625 C43.02277344 496.56652344 42.57289063 496.94164062 42.109375 497.328125 C28.5910661 508.08317236 15.20205238 509.35510761 -1.52734375 508.19140625 C-9.22998346 506.71983207 -15.26821998 502.75535066 -21.52734375 498.19140625 C-22.51734375 497.53140625 -23.50734375 496.87140625 -24.52734375 496.19140625 C-24.85347656 496.89007813 -25.17960938 497.58875 -25.515625 498.30859375 C-25.95261719 499.21867187 -26.38960937 500.12875 -26.83984375 501.06640625 C-27.26910156 501.97132813 -27.69835937 502.87625 -28.140625 503.80859375 C-29.52734375 506.19140625 -29.52734375 506.19140625 -32.52734375 508.19140625 C-37.49549592 509.07183828 -40.18543559 508.05331372 -44.19140625 505.26953125 C-45.85794213 504.0103708 -47.51135524 502.7336847 -49.15234375 501.44140625 C-50.40144531 500.49007812 -50.40144531 500.49007812 -51.67578125 499.51953125 C-53.97496096 497.76219644 -56.25333004 495.98110956 -58.52734375 494.19140625 C-59.52507812 493.423125 -60.5228125 492.65484375 -61.55078125 491.86328125 C-63.52734375 490.19140625 -63.52734375 490.19140625 -64.52734375 488.19140625 C-64.60004972 481.37885708 -62.40610649 475.7503445 -59.52734375 469.69140625 C-59.13087646 468.83426025 -58.73440918 467.97711426 -58.32592773 467.09399414 C-53.89398367 457.62713823 -49.33358605 447.9007697 -43.52734375 439.19140625 C-44.49542969 439.51367188 -45.46351563 439.8359375 -46.4609375 440.16796875 C-50.84782673 441.41505927 -55.05111429 441.55883539 -59.58984375 441.56640625 C-60.36650391 441.59089844 -61.14316406 441.61539062 -61.94335938 441.640625 C-67.27036151 441.66768852 -70.37472576 440.8157326 -74.52734375 437.19140625 C-83.94836223 424.30164677 -84.03135414 407.01606462 -83.91845703 391.71850586 C-83.90233537 389.12755908 -83.91842588 386.53816641 -83.9375 383.94726562 C-83.95518778 369.14391076 -83.30744361 352.51191617 -73.3203125 340.734375 C-70.94869221 338.69343815 -68.35324792 337.50385547 -65.52734375 336.19140625 C-66.07519531 335.42183594 -66.62304688 334.65226562 -67.1875 333.859375 C-90.17872212 300.83426822 -111.23182434 259.24155723 -116.39453125 218.91796875 C-117.17470108 208.44274652 -117.17470108 208.44274652 -122.0078125 199.66015625 C-124.85449313 198.13780309 -124.85449313 198.13780309 -127.83203125 197.15234375 C-131.98046198 195.67333801 -134.35052597 192.94502153 -136.52734375 189.19140625 C-139.38941025 182.8544707 -139.99064595 177.33271803 -140.33984375 170.44140625 C-140.97758629 161.48038204 -142.5578335 154.82147977 -147.52734375 147.19140625 C-148.61336567 145.38051593 -149.69679287 143.56806643 -150.77734375 141.75390625 C-151.256875 140.99207031 -151.73640625 140.23023438 -152.23046875 139.4453125 C-156.0386324 132.8269076 -156.48421758 126.71937823 -155.52734375 119.19140625 C-152.896792 111.69292957 -148.32440376 105.05188719 -143.9453125 98.46875 C-141.85890358 95.11785083 -141.37628241 92.30013715 -141.1328125 88.4375 C-141.06384766 87.49970703 -140.99488281 86.56191406 -140.92382812 85.59570312 C-140.78647797 83.64584434 -140.65858669 81.69529192 -140.54101562 79.74414062 C-139.81663191 70.32715231 -137.72423369 62.22185486 -130.54785156 55.68847656 C-126.94875882 53.02177324 -123.01251264 51.30038375 -118.90234375 49.56640625 C-111.25349703 46.29847793 -106.13629532 43.08733817 -101.58984375 35.87890625 C-89.70025164 17.55673995 -89.70025164 17.55673995 -78.52734375 14.19140625 C-73.10726439 13.33560425 -67.69456794 13.14892777 -62.21484375 13.19140625 C-54.69944152 13.19140625 -50.40631731 11.96000914 -44.58984375 7.44140625 C-43.36572192 6.52971922 -42.14046838 5.61954969 -40.9140625 4.7109375 C-40.33188965 4.27475098 -39.7497168 3.83856445 -39.14990234 3.38916016 C-26.46424775 -5.97524271 -14.35188967 -5.48151608 0 0 Z M18.47265625 17.19140625 C19.66858422 20.47599715 20.9124743 22.96247807 23.16015625 25.62890625 C27.56176083 31.269481 30.41935324 37.75959637 33.47265625 44.19140625 C36.03311109 41.73445916 38.13841166 39.32979304 40.09765625 36.37890625 C44.03059962 30.99379917 49.53363188 27.16091843 55.47265625 24.19140625 C53.98085243 20.35170664 51.85252103 18.76861216 48.47265625 16.50390625 C47.58578125 15.90191406 46.69890625 15.29992187 45.78515625 14.6796875 C36.91711531 8.97238413 27.44260545 13.92111227 18.47265625 17.19140625 Z M-43.05859375 30.88671875 C-47.15043951 36.19184435 -48.81365951 41.40389354 -48.40234375 48.12890625 C-47.27414211 56.49534535 -43.87091843 61.4046303 -37.52734375 66.84375 C-33.36459901 69.64872448 -28.42593058 69.85065532 -23.52734375 69.19140625 C-17.99526474 67.13503749 -14.15463515 63.44598905 -11.52734375 58.19140625 C-11.48225235 53.60110164 -11.95508583 50.07748303 -14.46484375 46.19140625 C-16.91499866 43.81549846 -17.88977641 43.26385708 -21.27734375 42.87890625 C-24.66710448 42.94184429 -24.66710448 42.94184429 -27.46484375 45.19140625 C-31.16851051 47.6101274 -33.18271559 47.76522506 -37.52734375 47.19140625 C-39.46484375 46.12890625 -39.46484375 46.12890625 -40.52734375 44.19140625 C-41.0330734 40.29006324 -40.95598642 37.99278167 -39.08984375 34.50390625 C-33.03922166 29.04358875 -26.59850675 27.44363683 -18.52734375 27.7421875 C-12.28987566 28.67618337 -6.79907725 31.38099108 -2.58984375 36.12890625 C2.79572541 44.12566045 4.20765903 50.66215965 3.47265625 60.19140625 C2.3088639 65.41643261 0.29404351 69.65505811 -2.52734375 74.19140625 C-1.40457031 74.17980469 -0.28179687 74.16820312 0.875 74.15625 C8.48572541 74.10189374 15.92268695 74.0932289 23.47265625 75.19140625 C24.51865391 58.02929644 18.02744032 42.44845204 6.8671875 29.5390625 C0.13226779 22.93598461 -7.854867 19.29049313 -17.27734375 18.81640625 C-27.2591325 19.05912452 -36.39629805 23.51060565 -43.05859375 30.88671875 Z M-81.12890625 34.2578125 C-83.63060381 37.71686359 -85.67492937 41.34999394 -87.52734375 45.19140625 C-86.75390625 45.41054688 -85.98046875 45.6296875 -85.18359375 45.85546875 C-78.20067638 47.98145597 -73.04240819 50.4472648 -67.52734375 55.19140625 C-65.8634755 56.5282301 -64.19735873 57.86226911 -62.52734375 59.19140625 C-62.62273437 58.1034375 -62.718125 57.01546875 -62.81640625 55.89453125 C-63.51519988 47.0008864 -63.57252466 38.96371114 -61.52734375 30.19140625 C-72.30151418 29.09052012 -72.30151418 29.09052012 -81.12890625 34.2578125 Z M54.47265625 43.19140625 C46.51581888 51.99039065 43.834518 60.84608888 44.125 72.56640625 C45.5158716 87.06897753 52.49089129 98.85213135 63.47265625 108.19140625 C66.71626073 110.50155686 66.71626073 110.50155686 70.47265625 111.19140625 C71.89082116 109.37436554 71.89082116 109.37436554 73.28515625 107.06640625 C75.78669687 103.17580377 78.43557172 99.67512086 81.47265625 96.19140625 C80.79460937 96.00707031 80.1165625 95.82273438 79.41796875 95.6328125 C71.08394256 93.03564367 64.01688831 88.7451406 59.21875 81.2265625 C55.69562624 73.44845836 55.46700439 65.55898596 58.16015625 57.56640625 C60.67578196 51.25113755 63.29938356 47.0779708 69.47265625 43.81640625 C76.44228579 41.02621955 84.21508445 40.99696326 91.22265625 43.56640625 C93.47265625 45.19140625 93.47265625 45.19140625 94.47265625 47.19140625 C94.85426079 50.70216798 94.98109346 52.49998077 92.85546875 55.390625 C89.69031943 57.78264768 87.93761209 57.44922343 84.03515625 57.12890625 C78.82152686 56.92246099 78.82152686 56.92246099 74.22265625 59.25390625 C72.11456599 62.79248633 71.47265625 65.06671866 71.47265625 69.19140625 C73.03634536 73.38867702 75.0516087 76.30489738 78.47265625 79.19140625 C83.83644758 80.97933669 89.36037963 80.88195822 94.72265625 79.12890625 C100.12076678 75.32569201 104.06656747 70.98756498 105.28125 64.3515625 C105.95389527 56.76028017 104.6258046 50.8550698 100.390625 44.45703125 C94.91772249 37.99209549 87.7330028 35.3228582 79.48046875 34.3203125 C69.65984921 33.89942881 61.9926562 36.86246219 54.47265625 43.19140625 Z M-62.52734375 59.19140625 C-61.52734375 61.19140625 -61.52734375 61.19140625 -61.52734375 61.19140625 Z M-116.0546875 70.9765625 C-121.5625161 79.26021983 -122.62439512 87.35187334 -121.52734375 97.19140625 C-119.15196818 107.39568239 -112.56760633 114.47520893 -103.86328125 119.94140625 C-91.68889587 126.45612753 -77.83573061 126.60386948 -64.67578125 123.2421875 C-56.9421591 120.66111509 -47.86745543 116.45298577 -43.82421875 109.08984375 C-43.05851562 107.34574219 -43.05851562 107.34574219 -42.27734375 105.56640625 C-39.49150319 99.53475768 -36.11975393 94.96676607 -31.4453125 90.1796875 C-29.36554248 88.14201086 -29.36554248 88.14201086 -27.52734375 85.19140625 C-28.43355469 85.04445313 -29.33976562 84.8975 -30.2734375 84.74609375 C-38.32727464 83.26316501 -44.19685146 81.40843251 -50.52734375 76.19140625 C-51.56761719 75.33869141 -51.56761719 75.33869141 -52.62890625 74.46875 C-54.286577 73.07194775 -55.91098407 71.63581277 -57.52734375 70.19140625 C-57.4809375 71.21878906 -57.43453125 72.24617188 -57.38671875 73.3046875 C-57.04178299 84.27231784 -57.8096792 93.64684907 -65.52734375 102.19140625 C-65.52734375 102.85140625 -65.52734375 103.51140625 -65.52734375 104.19140625 C-66.04296875 104.43890625 -66.55859375 104.68640625 -67.08984375 104.94140625 C-69.71140852 106.28579844 -72.22301579 107.76948146 -74.74609375 109.2890625 C-80.99043878 112.45231623 -89.50982521 112.24547783 -96.1328125 110.5078125 C-103.26366584 107.54991981 -108.79075721 103.53724827 -111.96484375 96.37890625 C-114.74785788 88.31900818 -114.12587494 82.12232831 -110.65234375 74.3671875 C-109.21633393 71.58990462 -108.22885585 69.84233031 -105.52734375 68.19140625 C-102.56431459 67.62644734 -100.6227071 67.79834424 -97.52734375 68.19140625 C-95.46484375 69.75390625 -95.46484375 69.75390625 -94.52734375 72.19140625 C-94.67418971 76.15624716 -95.31920867 78.79114649 -97.15234375 82.31640625 C-98.7116112 85.04554487 -98.7116112 85.04554487 -98.52734375 87.75390625 C-96.95324427 91.59077374 -94.23593999 94.33710813 -90.52734375 96.19140625 C-85.29785101 96.59367492 -81.920498 96.12017575 -77.52734375 93.19140625 C-73.34312345 87.76322856 -71.65817768 83.04680061 -72.52734375 76.19140625 C-74.83776326 69.00930217 -79.20899411 65.07831095 -85.71484375 61.37890625 C-97.67755172 57.65281688 -108.30950208 61.14402214 -116.0546875 70.9765625 Z M121.47265625 60.19140625 C121.21871094 61.27679688 120.96476562 62.3621875 120.703125 63.48046875 C120.35585243 64.92587349 120.00817461 66.3711809 119.66015625 67.81640625 C119.41168945 68.88568359 119.41168945 68.88568359 119.15820312 69.9765625 C118.0855591 74.38857 116.6797327 78.18198943 114.47265625 82.19140625 C115.30925781 82.15660156 116.14585937 82.12179688 117.0078125 82.0859375 C126.30188146 81.86979636 134.44125402 83.06637043 143.47265625 85.19140625 C143.43926922 83.31566198 143.36951552 81.44054999 143.28515625 79.56640625 C143.25035156 78.52226563 143.21554687 77.478125 143.1796875 76.40234375 C142.28635581 72.34533463 140.59605324 69.82927899 137.47265625 67.19140625 C134.80201286 65.61585982 132.04208506 64.44960435 129.16015625 63.31640625 C128.41958984 63.00960937 127.67902344 62.7028125 126.91601562 62.38671875 C125.1076473 61.64003763 123.29094497 60.91359378 121.47265625 60.19140625 Z M-58.52734375 68.19140625 C-57.52734375 70.19140625 -57.52734375 70.19140625 -57.52734375 70.19140625 Z M-22.9296875 103.078125 C-30.46283801 113.04251235 -33.77025227 124.34135619 -32.21484375 136.66796875 C-30.52074354 146.43929677 -26.28817215 154.21720694 -20.52734375 162.19140625 C-19.80546875 163.20203125 -19.08359375 164.21265625 -18.33984375 165.25390625 C-10.78583327 173.90755116 2.99548172 182.49347219 14.47265625 184.19140625 C14.84777344 183.12921875 15.22289062 182.06703125 15.609375 180.97265625 C18.2852223 173.53720927 20.87041314 166.68869064 25.47265625 160.19140625 C24.8178125 160.22621094 24.16296875 160.26101562 23.48828125 160.296875 C12.43879581 160.62461398 1.87960719 158.84773657 -6.52734375 151.19140625 C-12.83314502 143.84846661 -16.19120543 135.43100791 -15.80078125 125.73046875 C-14.82012704 116.6243939 -11.62868547 110.13137011 -4.52734375 104.19140625 C2.24841793 99.96651955 9.62940495 99.20237456 17.47265625 100.19140625 C21.20514033 101.6563744 21.20514033 101.6563744 22.47265625 104.19140625 C22.75231347 107.40746433 22.85518009 109.49200623 21.2890625 112.35546875 C18.8846865 114.78569825 17.52867262 114.65413359 14.16015625 114.69140625 C9.16960292 114.98147804 6.2951271 115.75118248 2.47265625 119.19140625 C0.14321335 122.06438583 -0.47921327 123.82698973 -0.96484375 127.50390625 C-0.28880115 133.20197956 1.78404381 137.30413352 5.59765625 141.56640625 C11.38664498 144.83844336 17.10177723 145.87537374 23.59765625 144.25390625 C30.46297347 141.78196027 35.59824964 137.50494836 38.97265625 131.00390625 C41.71135165 123.81483081 41.48465039 116.22588941 38.97265625 109.00390625 C35.56302555 101.54834052 30.16216458 95.17020983 22.54296875 91.8984375 C6.10067626 86.2832395 -10.91694748 90.27021542 -22.9296875 103.078125 Z M100.47265625 103.19140625 C99.78429687 103.55105469 99.0959375 103.91070312 98.38671875 104.28125 C91.2244069 108.35635847 85.39837636 114.20581165 82.91015625 122.19921875 C81.29991452 129.5315695 82.71506974 135.75431515 86.47265625 142.19140625 C89.94274797 146.1251428 94.20974921 150.16449756 99.47265625 151.19140625 C105.7829979 151.26325075 110.41263248 149.96162004 115.47265625 146.19140625 C117.99701464 143.11437768 119.32640568 140.08719097 119.97265625 136.12890625 C119.32831637 132.34340947 117.84849095 130.17816988 115.47265625 127.19140625 C111.71809058 124.68836247 109.92519691 124.73860551 105.47265625 125.19140625 C103.98765625 126.21234375 103.98765625 126.21234375 102.47265625 127.25390625 C99.47265625 129.19140625 99.47265625 129.19140625 95.72265625 129.06640625 C92.47265625 128.19140625 92.47265625 128.19140625 90.47265625 126.19140625 C89.99855887 123.03075707 89.73252832 121.20798825 90.47265625 118.19140625 C93.61360609 114.15052135 97.63607938 111.73798606 102.47265625 110.19140625 C110.31821392 109.3852916 118.0623063 109.09599988 124.47265625 114.19140625 C131.05199646 120.4094097 134.30505936 127.30658799 134.78515625 136.31640625 C134.69391798 143.14787141 132.36779084 150.10044911 128.22265625 155.56640625 C122.06212569 161.4469127 115.67341363 164.12441207 107.47265625 166.19140625 C108.7466851 169.50505008 110.18291114 172.62058025 111.84765625 175.75390625 C114.70036982 181.36621811 116.62532948 187.18501419 118.47265625 193.19140625 C121.73559212 191.84578228 124.97993843 190.45997093 128.22265625 189.06640625 C129.60324219 188.49792969 129.60324219 188.49792969 131.01171875 187.91796875 C136.4038297 185.57357268 140.05623611 183.84516735 142.47265625 178.19140625 C143.1131829 174.78327981 143.35060793 171.40107213 143.53515625 167.94140625 C144.28672489 155.11834632 147.41702301 146.3763629 154.796875 135.89257812 C157.88101683 131.20910014 159.21584395 127.973845 158.15722656 122.36743164 C156.98901474 118.6540679 155.19471603 115.61796049 152.97265625 112.44140625 C152.52631836 111.78889893 152.07998047 111.1363916 151.62011719 110.46411133 C147.99940813 105.420067 144.39142617 102.29867258 138.47265625 100.19140625 C137.52390625 99.77890625 136.57515625 99.36640625 135.59765625 98.94140625 C123.33481957 95.99832545 111.61413757 97.20338165 100.47265625 103.19140625 Z M-133.52734375 113.19140625 C-137.00632404 117.27920809 -139.6782655 121.00512287 -140.0625 126.46875 C-138.63058378 133.75375444 -133.14932981 140.23681739 -129.10546875 146.3359375 C-124.71461022 153.81728492 -124.96450812 163.66856304 -124.29296875 172.15234375 C-123.91731004 176.50131576 -123.29815396 178.84426751 -120.52734375 182.19140625 C-120.5015625 181.30839844 -120.47578125 180.42539063 -120.44921875 179.515625 C-119.89864419 167.86596788 -117.51426765 157.1017676 -109.52734375 148.19140625 C-106.00703786 145.28776084 -102.34666956 142.68552114 -98.52734375 140.19140625 C-99.99461571 137.25686232 -101.9964752 137.08946252 -105.02734375 135.94140625 C-116.75877099 131.17377646 -125.79222653 123.9675938 -132.52734375 113.19140625 C-132.85734375 113.19140625 -133.18734375 113.19140625 -133.52734375 113.19140625 Z M56.47265625 123.19140625 C56.3025 124.04863281 56.13234375 124.90585938 55.95703125 125.7890625 C54.56755029 132.3447519 53.09964766 137.56331612 49.47265625 143.19140625 C49.47265625 143.85140625 49.47265625 144.51140625 49.47265625 145.19140625 C50.80296875 144.94390625 50.80296875 144.94390625 52.16015625 144.69140625 C57.89056452 143.85078851 63.69690206 144.11323815 69.47265625 144.19140625 C68.76595954 134.43848374 68.76595954 134.43848374 64.5625 126.015625 C61.85259779 124.34837119 59.68442327 123.19140625 56.47265625 123.19140625 Z M-57.52734375 137.19140625 C-55.5174067 139.2013433 -53.93523143 140.09081544 -51.40234375 141.31640625 C-49.48421875 142.24453125 -49.48421875 142.24453125 -47.52734375 143.19140625 C-47.85734375 140.22140625 -48.18734375 137.25140625 -48.52734375 134.19140625 C-51.83089921 134.19140625 -54.54842624 135.86744291 -57.52734375 137.19140625 Z M-91.52734375 154.19140625 C-92.59275391 154.81015625 -92.59275391 154.81015625 -93.6796875 155.44140625 C-99.36751934 159.16974295 -102.48983638 163.71437595 -104.52734375 170.19140625 C-105.91757211 178.17952164 -104.05851913 184.54320631 -99.52734375 191.19140625 C-95.60043942 195.02253243 -91.70957465 197.47465767 -86.15234375 197.50390625 C-80.30422615 197.34092592 -76.96965728 195.50830122 -72.65234375 191.56640625 C-69.95836255 187.28773023 -69.51847049 184.12670519 -70.52734375 179.19140625 C-72.32128043 176.32110756 -73.50997651 174.70008987 -76.52734375 173.19140625 C-80.48266022 172.73148573 -82.74564181 173.14372097 -86.02734375 175.25390625 C-88.68843587 176.9023704 -89.48284317 177.19055047 -92.77734375 177.25390625 C-95.52734375 176.19140625 -95.52734375 176.19140625 -97.52734375 174.06640625 C-98.96146797 169.94329913 -98.41643596 168.10952343 -96.52734375 164.19140625 C-88.99094056 158.00362258 -82.09360948 157.45553966 -72.52734375 158.19140625 C-66.24554382 159.82585576 -62.08975312 163.90345485 -58.52734375 169.19140625 C-54.13998276 177.66355162 -53.9085099 185.1492635 -56.52734375 194.19140625 C-60.00509335 202.06708822 -65.77565051 207.23853119 -73.65234375 210.50390625 C-76.91637338 211.7396491 -80.0925978 212.57412984 -83.52734375 213.19140625 C-80.51318593 218.48638313 -80.51318593 218.48638313 -75.72753906 221.79663086 C-73.24319759 222.24238987 -70.84650363 222.40516137 -68.32421875 222.5078125 C-67.34453125 222.54970703 -66.36484375 222.59160156 -65.35546875 222.63476562 C-64.3396875 222.67408203 -63.32390625 222.71339844 -62.27734375 222.75390625 C-60.73046875 222.81868164 -60.73046875 222.81868164 -59.15234375 222.88476562 C-56.61080505 222.99066307 -54.06917179 223.09274068 -51.52734375 223.19140625 C-51.44097656 222.29679687 -51.35460937 221.4021875 -51.265625 220.48046875 C-50.25882437 211.8164413 -48.69707307 204.07108949 -42.8984375 197.28515625 C-39.99182965 192.8465756 -40.95791602 187.2566015 -41.52734375 182.19140625 C-44.32686267 170.57029214 -49.57441935 161.23730851 -59.51171875 154.41015625 C-69.55333793 148.33847953 -81.41133419 148.04885775 -91.52734375 154.19140625 Z M37.22265625 171.44140625 C32.17565586 177.71568269 29.77437213 184.7703974 30.15234375 192.80859375 C31.01017716 199.19003739 33.48477489 204.94512836 38.47265625 209.19140625 C45.08753096 213.72492798 51.49334008 215.54851829 59.47265625 214.19140625 C64.75368038 211.5989035 67.90858678 207.9471477 70.78515625 202.87890625 C71.74959147 199.10884131 71.52479627 195.93066646 70.47265625 192.19140625 C68.32307251 188.7817217 66.35202594 186.44649644 62.47265625 185.19140625 C59.51519133 184.60795149 59.51519133 184.60795149 56.47265625 185.19140625 C53.39429452 187.68341337 51.5771692 190.01025047 49.59765625 193.44140625 C47.47265625 196.19140625 47.47265625 196.19140625 43.97265625 197.25390625 C40.47265625 197.19140625 40.47265625 197.19140625 38.03515625 196.25390625 C36.07325625 193.66419825 35.91297973 191.58604052 36.08984375 188.37890625 C37.03460944 182.98024518 39.44763807 179.21642443 43.28515625 175.37890625 C50.65041502 170.3243169 56.56129475 169.14710607 65.47265625 170.19140625 C72.10778889 172.0727091 78.33397677 175.57477754 81.9140625 181.62890625 C86.37316419 190.36925372 87.88658368 197.65354716 85.34765625 207.31640625 C83.90112759 211.72553689 81.71395957 215.03280918 78.77734375 218.59765625 C77.39010437 220.17274235 77.39010437 220.17274235 76.47265625 222.19140625 C79.03544324 222.24561326 81.59707108 222.28517632 84.16015625 222.31640625 C84.88138672 222.33316406 85.60261719 222.34992188 86.34570312 222.3671875 C90.51444664 222.40525822 93.78223345 222.19401318 97.47265625 220.19140625 C100.90352557 216.68256263 103.13560986 214.13475331 103.47265625 209.19140625 C103.52292969 208.49402344 103.57320313 207.79664063 103.625 207.078125 C104.15220604 193.85579756 99.70882846 182.92415286 91.22265625 173.00390625 C83.09727916 164.36901707 74.80823719 160.08450421 62.97265625 158.81640625 C52.12895631 159.97823124 44.68724909 163.54866968 37.22265625 171.44140625 Z M-26.52734375 180.19140625 C-26.19734375 181.51140625 -25.86734375 182.83140625 -25.52734375 184.19140625 C-24.53734375 183.86140625 -23.54734375 183.53140625 -22.52734375 183.19140625 C-23.18734375 182.20140625 -23.84734375 181.21140625 -24.52734375 180.19140625 C-25.18734375 180.19140625 -25.84734375 180.19140625 -26.52734375 180.19140625 Z M-31.52734375 207.19140625 C-34.55880377 211.5105661 -36.22231378 215.72029227 -35.9140625 221.109375 C-34.91104435 226.50946261 -32.87971806 230.90343071 -28.90234375 234.69140625 C-24.15028749 237.69270494 -20.08736852 237.9333114 -14.52734375 237.19140625 C-10.52718809 235.37832757 -8.74591977 232.68101654 -6.96484375 228.69140625 C-6.2249609 225.21961116 -6.2249609 225.21961116 -7.77734375 222.37890625 C-10.19981794 219.11995961 -10.19981794 219.11995961 -13.83984375 217.81640625 C-16.69393189 217.97160689 -16.69393189 217.97160689 -18.90234375 220.19140625 C-22.31750563 222.79343435 -24.32767946 222.65803562 -28.52734375 222.19140625 C-31.52734375 220.19140625 -31.52734375 220.19140625 -32.40234375 217.37890625 C-32.5498135 213.61842756 -31.63408517 212.2251139 -29.52734375 209.19140625 C-29.52734375 208.53140625 -29.52734375 207.87140625 -29.52734375 207.19140625 C-27.86067708 206.52473958 -26.19401042 205.85807292 -24.52734375 205.19140625 C-23.75390625 204.8459375 -22.98046875 204.50046875 -22.18359375 204.14453125 C-16.40633356 202.07151436 -9.83274443 202.2366546 -4.21484375 204.75390625 C1.05452847 207.79434484 5.15738581 212.56860661 7.47265625 218.19140625 C7.88671875 220.84765625 7.88671875 220.84765625 8.09765625 223.69140625 C8.17242187 224.62984375 8.2471875 225.56828125 8.32421875 226.53515625 C8.44804535 228.75100072 8.47265625 230.97210461 8.47265625 233.19140625 C11.44265625 233.52140625 14.41265625 233.85140625 17.47265625 234.19140625 C17.87893665 223.0186952 15.51563887 213.78879095 7.76953125 205.33203125 C1.31685217 199.46067461 -4.94956799 197.65136059 -13.59765625 197.91015625 C-20.98410633 198.61925546 -26.58414347 201.64751328 -31.52734375 207.19140625 Z M-99.52734375 219.19140625 C-96.28732941 243.54737615 -85.94716294 267.84656922 -74.48193359 289.38818359 C-73.51472677 291.21523976 -72.57575482 293.05478527 -71.640625 294.8984375 C-66.98596827 303.97941828 -61.67121721 312.5308805 -55.97167969 320.99023438 C-54.50382353 323.22725113 -53.12682758 325.50450493 -51.75390625 327.80078125 C-45.12737376 338.50756099 -39.3248103 342.52303688 -27.51806641 346.44775391 C-20.33061902 349.13268949 -14.54847818 354.00983787 -9.54516602 359.67749023 C-4.6047394 365.04744386 -0.6106712 366.890782 6.75439453 367.35595703 C15.26998878 367.45072839 15.26998878 367.45072839 23.17578125 364.71875 C25.02735226 362.8368577 25.02735226 362.8368577 26.58984375 360.61328125 C29.00915058 357.50130981 31.91318093 355.33067416 35.09765625 353.06640625 C35.69247803 352.64246582 36.2872998 352.21852539 36.90014648 351.78173828 C43.62133808 347.16557969 51.1431488 343.63379588 59.02734375 341.5 C62.81882238 339.47101383 64.67311936 336.27258636 67.03515625 332.75390625 C67.55400391 331.99674316 68.07285156 331.23958008 68.60742188 330.45947266 C70.24691509 328.04819147 71.86255783 325.6223965 73.47265625 323.19140625 C73.97780762 322.43553223 74.48295898 321.6796582 75.00341797 320.90087891 C94.46617509 291.60831819 111.93918111 257.06863384 118.47265625 222.19140625 C118.14265625 221.20140625 117.81265625 220.21140625 117.47265625 219.19140625 C117.06015625 219.84367188 116.64765625 220.4959375 116.22265625 221.16796875 C111.31115652 228.60099735 106.44949477 234.45222454 97.56494141 236.81591797 C93.30514116 237.58039554 88.9757394 237.44834394 84.66015625 237.50390625 C76.52817307 237.76472587 70.16383842 238.17301962 63.47265625 243.19140625 C62.49296875 243.92617187 61.51328125 244.6609375 60.50390625 245.41796875 C58.42687556 246.99630643 56.35257554 248.57824511 54.28125 250.1640625 C47.48502705 255.0698201 40.78302627 256.42363353 32.47265625 255.19140625 C28.38099229 254.08261028 24.36337185 252.75753138 20.3737793 251.32641602 C11.25255364 248.13441339 5.14867092 248.96867936 -3.83984375 252.19140625 C-13.74803317 255.5001891 -21.96235942 257.10328928 -31.8515625 252.734375 C-35.7891425 250.46379967 -39.30994808 247.716613 -42.79833984 244.80908203 C-50.08992045 238.81031861 -56.28796985 237.77797425 -65.40234375 237.69140625 C-75.8252411 237.59159738 -83.91464368 236.48044044 -91.734375 229.17578125 C-94.1014819 226.55597666 -95.8960923 223.76994698 -97.6171875 220.6953125 C-97.91753906 220.19902344 -98.21789062 219.70273438 -98.52734375 219.19140625 C-98.85734375 219.19140625 -99.18734375 219.19140625 -99.52734375 219.19140625 Z M33.47265625 225.19140625 C33.61291908 227.50425081 33.76001183 229.81668216 33.91015625 232.12890625 C33.99136719 233.41667969 34.07257813 234.70445312 34.15625 236.03125 C34.12184813 239.05164582 34.12184813 239.05164582 35.47265625 240.19140625 C41.92779626 240.05692417 46.61192729 237.38456728 51.47265625 233.19140625 C51.80265625 232.20140625 52.13265625 231.21140625 52.47265625 230.19140625 C51.04373047 229.90136719 51.04373047 229.90136719 49.5859375 229.60546875 C47.70455078 229.21488281 47.70455078 229.21488281 45.78515625 228.81640625 C44.54378906 228.56117188 43.30242187 228.3059375 42.0234375 228.04296875 C38.99862307 227.31754571 36.3120637 226.44009404 33.47265625 225.19140625 Z M-62.52734375 353.19140625 C-67.73227338 363.83785321 -67.87553457 374.9587199 -67.84301758 386.578125 C-67.83986759 388.92365506 -67.86336031 391.26790697 -67.88867188 393.61328125 C-68.12761634 410.12206362 -68.12761634 410.12206362 -62.52734375 425.19140625 C-48.60707702 426.81543737 -34.07884403 420.09713647 -23.26953125 411.73828125 C-20.6431944 409.60228351 -18.06376322 407.43301143 -15.52734375 405.19140625 C-15.98362289 402.52977793 -16.52346049 400.2006708 -17.5703125 397.703125 C-20.51502619 389.97475397 -18.24822073 381.65762226 -15.52734375 374.19140625 C-27.7763011 362.53418597 -42.86756557 353.66243308 -60.15234375 353.06640625 C-60.93609375 353.10765625 -61.71984375 353.14890625 -62.52734375 353.19140625 Z M36.47265625 372.19140625 C35.04819741 374.11055703 35.04819741 374.11055703 34.47265625 376.19140625 C35.20329 378.08441188 35.94024481 379.97545745 36.72265625 381.84765625 C39.0599534 389.15170983 37.61336036 395.50034096 34.47265625 402.19140625 C34.39980513 404.17764932 34.39980513 404.17764932 35.47265625 406.19140625 C37.37743558 407.98101288 39.19984097 409.51795189 41.28515625 411.06640625 C41.869021 411.50476807 42.45288574 411.94312988 43.05444336 412.39477539 C54.58881165 420.83732894 67.04479117 425.9127995 81.47265625 425.19140625 C87.50762493 415.31600296 86.81976523 402.87687143 86.78833008 391.67431641 C86.78517007 389.32667523 86.80871885 386.98029908 86.83398438 384.6328125 C86.8782681 374.06996367 86.73975021 362.66217005 81.47265625 353.19140625 C64.94077951 352.55261658 48.07492038 360.77741416 36.47265625 372.19140625 Z M-1.52734375 384.19140625 C-3.8725731 387.07653603 -3.8725731 387.07653603 -3.40234375 390.69140625 C-2.84245508 394.12112285 -2.84245508 394.12112285 -0.96875 395.87890625 C2.43843213 397.71060736 5.63536033 397.70517032 9.41015625 397.69140625 C10.11333984 397.71976562 10.81652344 397.748125 11.54101562 397.77734375 C15.49894151 397.79218134 17.31011887 397.31610983 20.4765625 394.88671875 C22.83222241 392.26488101 22.83222241 392.26488101 22.47265625 388.56640625 C21.33969962 384.70920163 21.33969962 384.70920163 18.47265625 382.19140625 C15.31256092 381.13804114 12.91734265 380.99107737 9.59765625 380.94140625 C8.56898438 380.915625 7.5403125 380.88984375 6.48046875 380.86328125 C3.03337655 381.23932767 1.23672796 382.13039111 -1.52734375 384.19140625 Z M-1.52734375 413.19140625 C-21.17697909 431.83241011 -38.02412649 456.32745374 -46.52734375 482.19140625 C-43.88734375 484.17140625 -41.24734375 486.15140625 -38.52734375 488.19140625 C-38.10549805 487.31218506 -37.68365234 486.43296387 -37.24902344 485.52709961 C-13.78892363 436.67866114 -13.78892363 436.67866114 0.47265625 414.19140625 C-0.18734375 413.86140625 -0.84734375 413.53140625 -1.52734375 413.19140625 Z M18.47265625 413.19140625 C21.39386628 418.59850874 24.3477471 423.98207631 27.40234375 429.31518555 C38.32622353 448.46436806 48.17702043 468.20793109 57.47265625 488.19140625 C60.11265625 486.21140625 62.75265625 484.23140625 65.47265625 482.19140625 C60.12787062 465.72200868 51.27420617 449.70361129 40.47265625 436.19140625 C39.59814249 435.04458069 38.72590262 433.89601899 37.85546875 432.74609375 C32.57360916 425.82102994 27.20562236 418.78494733 20.47265625 413.19140625 C19.81265625 413.19140625 19.15265625 413.19140625 18.47265625 413.19140625 Z M8.47265625 430.19140625 C4.320638 437.87588044 4.320638 437.87588044 0.18530273 445.56933594 C-0.45715786 446.76759751 -1.09965469 447.96583965 -1.7421875 449.1640625 C-2.06270584 449.76189545 -2.38322418 450.35972839 -2.7134552 450.97567749 C-4.68551686 454.64661857 -6.69010048 458.29757861 -8.71875 461.9375 C-9.18684082 462.79045654 -9.65493164 463.64341309 -10.13720703 464.5222168 C-11.00157244 466.09724379 -11.87828125 467.66557973 -12.76904297 469.22583008 C-14.62212989 472.63848805 -15.54889835 474.55963356 -15.4140625 478.51171875 C-13.71306439 483.65218001 -10.5018161 486.8012367 -5.96484375 489.50390625 C1.93158573 493.38033527 13.63562608 493.88281676 22.03515625 491.06640625 C27.15873189 488.27172863 32.51133306 484.96182554 34.47265625 479.19140625 C34.02063944 474.6596377 32.73684247 471.27600197 30.62890625 467.26171875 C30.0457666 466.14321533 29.46262695 465.02471191 28.86181641 463.87231445 C28.23244386 462.68682716 27.60271768 461.50152756 26.97265625 460.31640625 C26.33596119 459.1046548 25.69973267 457.89265811 25.06396484 456.68041992 C20.36831055 447.75625007 15.52473898 438.91894599 10.47265625 430.19140625 C9.81265625 430.19140625 9.15265625 430.19140625 8.47265625 430.19140625 Z " fill="#000000" transform="translate(246.52734375,3.80859375)"/>
</svg>
