<?xml version="1.0" standalone="no"?>
<!DOCTYPE svg PUBLIC "-//W3C//DTD SVG 20010904//EN"
 "http://www.w3.org/TR/2001/REC-SVG-20010904/DTD/svg10.dtd">
<svg version="1.0" xmlns="http://www.w3.org/2000/svg"
 width="143.000000pt" height="143.000000pt" viewBox="0 0 512.000000 512.000000"
 preserveAspectRatio="xMidYMid meet">

<g transform="translate(0.000000,512.000000) scale(0.100000,-0.100000)"
fill="#000000" stroke="none">
<path d="M3171 4929 c-74 -53 -141 -131 -181 -213 -22 -43 -40 -86 -40 -96 0
-41 -8 -46 -69 -42 -102 7 -225 -30 -333 -102 -32 -20 -60 -45 -63 -55 -3 -9
4 -43 15 -75 41 -121 120 -229 210 -286 27 -18 50 -33 50 -34 0 0 -9 -25 -20
-54 -11 -29 -20 -60 -20 -70 0 -9 -20 -48 -45 -85 -88 -131 -143 -256 -185
-422 l-28 -110 -12 45 c-66 259 -158 466 -269 604 l-39 50 48 43 c127 114 136
273 26 455 -40 66 -143 195 -163 202 -7 3 -38 -4 -68 -15 l-55 -21 -46 41
c-53 46 -217 131 -255 131 -41 0 -49 -17 -49 -111 0 -102 20 -220 50 -285 24
-56 24 -54 2 -54 -11 0 -27 -9 -36 -19 -16 -18 -16 -23 -1 -82 64 -251 163
-369 310 -369 30 0 77 9 105 19 l50 19 54 -68 c98 -125 176 -300 237 -526 53
-200 69 -302 79 -493 5 -100 12 -219 16 -262 l7 -79 -34 0 c-33 0 -35 2 -84
108 -67 144 -150 266 -238 348 l-73 69 24 64 c84 235 -52 388 -299 336 -251
-51 -440 -209 -536 -447 -37 -91 -64 -237 -61 -325 3 -67 5 -77 25 -84 17 -6
30 -1 59 22 57 45 120 59 329 70 201 10 283 21 338 44 75 31 127 97 127 162
l0 27 31 -30 c49 -46 116 -145 170 -250 27 -54 49 -101 49 -106 0 -4 -65 -8
-145 -8 -166 0 -197 -8 -240 -64 -71 -94 -28 -223 88 -266 40 -14 43 -19 66
-85 32 -97 41 -267 16 -350 -26 -92 -87 -203 -230 -425 -218 -338 -268 -451
-269 -615 -1 -113 14 -164 71 -253 65 -103 205 -221 311 -264 l57 -23 525 0
525 0 57 23 c174 71 345 263 378 427 35 173 -25 332 -266 706 -220 341 -250
413 -241 593 5 123 39 255 66 263 130 38 177 175 95 273 -48 56 -65 60 -265
60 l-181 0 6 30 c10 51 66 177 98 222 l31 43 10 -30 c16 -47 44 -81 84 -101
34 -17 65 -19 293 -19 285 0 295 -2 422 -80 49 -31 61 -34 79 -24 21 11 21 16
16 113 -15 295 -190 511 -463 571 -108 25 -296 17 -379 -15 -91 -35 -144 -75
-167 -127 -26 -59 -18 -102 29 -154 l35 -39 -40 -53 c-50 -65 -87 -137 -126
-247 -22 -59 -37 -86 -50 -88 -10 -2 -22 0 -26 5 -5 4 -14 92 -20 196 -18 280
4 518 66 727 26 86 102 260 113 260 4 0 15 -31 24 -68 10 -38 23 -74 29 -80
17 -17 153 -15 223 3 79 20 151 56 202 100 l41 35 44 -37 c87 -73 219 -116
345 -111 l77 3 19 49 c44 121 43 288 -3 393 l-18 42 41 25 c86 50 176 164 217
272 28 75 26 97 -12 129 -85 71 -250 128 -361 124 l-59 -3 -22 70 c-26 81 -61
139 -125 207 -50 54 -122 107 -144 107 -8 0 -33 -14 -56 -31z m138 -145 c61
-66 99 -137 107 -198 6 -41 5 -44 -29 -65 -41 -25 -92 -81 -102 -110 -5 -17
-15 -21 -53 -21 -26 0 -66 -9 -89 -19 -39 -18 -42 -18 -56 -3 -38 44 -52 87
-52 163 0 65 5 85 32 140 20 40 56 89 94 127 71 71 70 71 148 -14z m-1489
-163 l33 -27 -28 -58 c-24 -49 -27 -65 -22 -116 4 -53 3 -60 -13 -60 -17 0
-54 49 -78 104 -18 41 -42 160 -42 207 l0 40 59 -31 c32 -17 73 -44 91 -59z
m306 -168 c48 -74 74 -146 74 -204 0 -61 -19 -104 -64 -148 l-34 -33 -7 34
c-13 57 -51 122 -99 166 -25 23 -50 42 -56 42 -19 0 -43 65 -44 120 -1 67 22
105 84 137 l43 21 35 -41 c19 -23 50 -65 68 -94z m782 31 c27 -6 33 -13 47
-60 8 -29 31 -73 50 -98 30 -39 33 -49 25 -71 -6 -15 -10 -53 -10 -86 0 -56
-2 -60 -27 -70 -55 -21 -131 -13 -199 21 -77 38 -135 100 -180 195 -39 80 -41
75 49 121 85 44 176 62 245 48z m787 -9 c70 -19 175 -73 175 -91 0 -25 -38
-100 -78 -153 -40 -53 -124 -121 -149 -121 -7 0 -33 16 -58 35 -40 30 -98 55
-131 55 -6 0 -16 18 -23 40 -6 22 -25 55 -41 74 -17 18 -30 39 -30 44 0 20 60
80 98 98 77 36 147 42 237 19z m-407 -195 c72 -44 80 -133 16 -189 -107 -94
-259 50 -167 159 44 53 96 63 151 30z m-1496 -14 c36 -8 79 -21 95 -29 66 -35
122 -119 123 -185 0 -28 -5 -35 -35 -48 -47 -19 -104 -18 -142 5 -51 32 -119
148 -138 239 -8 38 -4 39 97 18z m1703 -175 c114 -52 178 -199 155 -358 -14
-99 -16 -103 -59 -103 -88 0 -222 53 -275 108 l-28 31 16 47 c9 26 16 74 16
107 0 58 2 61 40 95 22 18 47 47 56 63 17 34 25 35 79 10z m-392 -83 c17 -12
51 -27 76 -34 44 -11 46 -13 49 -52 6 -85 -67 -190 -167 -241 -52 -27 -144
-51 -193 -51 -51 0 -61 25 -62 160 -1 88 3 113 22 155 l22 50 68 1 c37 0 82 8
102 17 46 20 47 20 83 -5z m-1173 -675 c54 -32 65 -111 30 -206 l-20 -54 -53
14 c-67 18 -176 11 -251 -18 -58 -21 -81 -45 -70 -74 12 -30 45 -34 99 -12 61
24 185 28 230 6 35 -17 49 -65 34 -121 -19 -73 -85 -92 -389 -108 -112 -6
-206 -16 -238 -25 -30 -9 -55 -15 -57 -13 -9 9 26 162 52 230 71 181 204 308
392 374 82 29 198 33 241 7z m1328 -188 c211 -50 347 -202 386 -432 l5 -32
-52 23 c-110 49 -217 61 -410 46 -174 -13 -219 -5 -242 40 -8 16 -15 42 -15
59 0 28 3 30 47 37 35 5 63 2 111 -14 79 -26 105 -18 100 31 -3 30 -8 34 -68
54 -73 25 -139 29 -205 11 -42 -11 -46 -11 -71 12 -41 39 -48 58 -30 86 51 77
279 118 444 79z m-191 -747 c48 -45 21 -120 -49 -133 -18 -3 -255 -5 -526 -3
l-494 3 -24 28 c-31 36 -31 71 1 102 l24 25 522 0 523 0 23 -22z m-148 -290
c-27 -85 -39 -220 -29 -304 18 -139 60 -228 246 -517 74 -114 155 -248 180
-297 121 -241 107 -415 -48 -576 -78 -82 -150 -130 -224 -149 -86 -22 -942
-22 -1028 0 -115 30 -260 158 -319 282 -29 61 -32 77 -32 158 1 151 45 252
250 570 151 234 206 335 235 433 20 65 22 90 17 205 -3 93 -11 150 -25 195
l-20 62 408 0 408 0 -19 -62z"/>
<path d="M2212 1517 c-6 -6 -13 -24 -17 -38 -7 -30 15 -59 45 -59 38 0 65 71
38 98 -16 16 -53 15 -66 -1z"/>
<path d="M2064 1243 c-177 -271 -220 -370 -212 -496 7 -109 59 -197 163 -277
53 -41 82 -49 103 -28 24 24 11 51 -57 114 -90 83 -115 139 -109 239 6 90 44
173 166 362 51 78 92 150 92 160 0 25 -19 43 -46 43 -17 0 -39 -26 -100 -117z"/>
</g>
</svg>
