<?xml version="1.0" standalone="no"?>
<!DOCTYPE svg PUBLIC "-//W3C//DTD SVG 20010904//EN"
 "http://www.w3.org/TR/2001/REC-SVG-20010904/DTD/svg10.dtd">
<svg version="1.0" xmlns="http://www.w3.org/2000/svg"
 width="640.000000pt" height="355.000000pt" viewBox="0 0 640.000000 355.000000"
 preserveAspectRatio="xMidYMid meet">

<g transform="translate(0.000000,355.000000) scale(0.100000,-0.100000)"
fill="#000000" stroke="none">
<path d="M1500 2090 l0 -510 140 0 140 0 2 193 3 192 177 3 178 2 2 -192 3
-193 143 -3 142 -3 0 511 0 510 -145 0 -145 0 -2 -192 -3 -193 -155 -3 c-85
-1 -165 0 -177 3 -23 5 -23 7 -23 195 l0 190 -140 0 -140 0 0 -510z"/>
<path d="M2811 2558 c12 -24 69 -131 127 -238 58 -107 129 -241 159 -298 l53
-103 0 -169 0 -170 145 0 145 0 0 176 0 177 156 296 c87 163 160 301 164 306
3 6 11 22 18 38 l12 27 -160 0 -160 0 -85 -170 c-47 -93 -88 -170 -93 -170 -4
0 -45 76 -92 168 l-85 167 -163 3 -163 2 22 -42z"/>
<path d="M4170 2090 l0 -510 271 0 c263 0 273 1 346 25 143 48 248 141 311
274 33 69 36 83 40 187 4 94 1 124 -16 181 -48 156 -176 286 -331 333 -56 18
-93 20 -342 20 l-279 0 0 -510z m538 241 c170 -75 206 -302 68 -429 -64 -59
-112 -73 -231 -70 l-100 3 -3 254 c-2 197 1 257 10 263 7 5 56 7 108 5 72 -2
108 -9 148 -26z"/>
<path d="M1157 1338 c-19 -48 -47 -139 -47 -150 0 -20 19 -5 29 22 9 26 15 30
46 30 31 0 37 -4 46 -30 11 -30 29 -41 29 -17 0 7 -13 51 -28 97 -34 100 -51
111 -75 48z m49 -46 c6 -30 5 -32 -21 -32 -25 0 -26 2 -20 33 13 59 29 59 41
-1z"/>
<path d="M1360 1280 c0 -55 4 -100 9 -100 6 0 11 14 13 31 3 33 12 40 63 56
26 7 30 14 33 46 4 53 -11 67 -69 67 l-49 0 0 -100z m84 74 c32 -32 6 -88 -38
-82 -16 2 -22 11 -24 36 -2 19 -1 40 2 48 7 19 41 18 60 -2z"/>
<path d="M1520 1280 l0 -101 77 3 c73 3 77 4 83 28 5 20 13 26 43 28 34 3 39
0 48 -27 11 -31 29 -42 29 -18 0 7 -13 51 -28 97 -39 117 -52 116 -92 -5 -24
-73 -36 -95 -47 -91 -8 3 -30 6 -49 6 l-34 0 0 90 c0 73 -3 90 -15 90 -12 0
-15 -18 -15 -100z m224 28 c10 -39 7 -48 -19 -48 -28 0 -30 6 -15 44 12 32 26
33 34 4z"/>
<path d="M1856 1349 c-42 -50 -31 -134 21 -158 30 -14 93 -14 93 -1 0 6 -15
10 -34 10 -51 0 -81 29 -81 79 0 53 30 85 80 85 19 0 35 4 35 8 0 4 -20 8 -44
8 -37 0 -48 -5 -70 -31z"/>
<path d="M2020 1280 l0 -100 56 0 c34 0 53 4 49 10 -3 6 -24 10 -46 10 -39 0
-40 1 -37 33 3 29 7 33 43 38 l40 5 -40 5 c-39 4 -40 5 -40 44 0 39 1 40 40
46 39 6 39 6 -12 8 l-53 1 0 -100z"/>
<path d="M2210 1369 c0 -6 9 -51 21 -100 25 -106 41 -114 64 -31 25 90 25 90
35 72 4 -8 13 -41 20 -72 8 -34 18 -58 26 -58 12 0 45 91 60 168 13 63 -14 31
-32 -38 -10 -38 -21 -70 -25 -70 -4 0 -15 32 -24 70 -10 40 -22 70 -30 70 -7
0 -20 -30 -30 -67 -10 -38 -21 -71 -24 -76 -4 -4 -15 27 -25 68 -10 41 -22 75
-27 75 -5 0 -9 -5 -9 -11z"/>
<path d="M2470 1280 c0 -80 3 -100 14 -100 10 0 16 14 18 43 3 35 7 43 27 45
12 2 34 1 47 -2 20 -5 24 -13 24 -46 0 -22 5 -40 10 -40 6 0 10 40 10 100 0
60 -4 100 -10 100 -5 0 -10 -20 -10 -45 l0 -45 -50 0 -50 0 0 45 c0 33 -4 45
-15 45 -12 0 -15 -18 -15 -100z"/>
<path d="M2670 1280 l0 -100 56 0 c34 0 53 4 49 10 -3 6 -24 10 -46 10 -39 0
-40 1 -37 33 3 29 7 33 43 38 l40 5 -40 5 c-39 4 -40 5 -40 44 0 39 1 40 40
46 39 6 39 6 -12 8 l-53 1 0 -100z"/>
<path d="M2820 1280 c0 -60 4 -100 10 -100 6 0 10 18 10 39 0 22 4 43 10 46
18 11 48 -14 60 -50 15 -45 34 -47 25 -2 -4 17 -11 37 -16 43 -6 7 -3 23 8 42
14 25 15 34 5 56 -10 23 -17 26 -62 26 l-50 0 0 -100z m87 63 c13 -19 12 -24
-7 -43 -28 -28 -54 -22 -58 13 -2 16 -1 35 2 44 8 20 46 12 63 -14z"/>
<path d="M2970 1280 l0 -100 55 0 c30 0 55 5 55 10 0 6 -18 10 -41 10 -39 0
-40 1 -37 33 3 29 7 33 43 38 l40 5 -40 5 c-39 4 -40 5 -40 44 0 39 1 40 40
46 37 6 36 6 -17 8 l-58 1 0 -100z"/>
<path d="M3206 1292 c-16 -48 -31 -93 -33 -99 -10 -27 17 -12 32 17 13 24 22
30 49 30 29 0 36 -5 45 -30 5 -16 15 -30 20 -30 15 0 15 4 -20 107 -40 122
-54 123 -93 5z m63 7 c6 -18 11 -34 11 -35 0 -2 -13 -4 -30 -4 -16 0 -30 2
-30 4 0 14 24 66 30 66 4 0 13 -14 19 -31z"/>
<path d="M3440 1280 c0 -99 16 -141 22 -57 3 41 4 42 43 48 l40 5 -40 5 c-39
4 -40 5 -40 44 0 39 1 40 40 46 39 6 39 6 -12 8 l-53 1 0 -100z"/>
<path d="M3580 1280 l0 -100 56 0 c34 0 53 4 49 10 -3 6 -24 10 -46 10 l-39 0
0 90 c0 53 -4 90 -10 90 -6 0 -10 -40 -10 -100z"/>
<path d="M3730 1362 c-18 -14 -24 -32 -28 -75 -4 -50 -2 -58 21 -81 37 -37 98
-36 132 0 35 38 35 115 0 149 -30 31 -92 34 -125 7z m83 -3 c48 -22 61 -89 26
-133 -38 -48 -98 -28 -114 37 -12 45 15 91 62 106 1 1 13 -4 26 -10z"/>
<path d="M3910 1369 c0 -6 9 -51 21 -100 25 -106 41 -114 64 -31 25 90 25 90
35 72 4 -8 13 -41 20 -72 8 -34 18 -58 26 -58 12 0 45 91 60 168 13 63 -14 31
-32 -38 -10 -38 -21 -70 -25 -70 -4 0 -15 32 -24 70 -10 40 -22 70 -30 70 -7
0 -20 -30 -30 -67 -10 -38 -21 -71 -24 -76 -4 -4 -15 27 -25 68 -10 41 -22 75
-27 75 -5 0 -9 -5 -9 -11z"/>
<path d="M4170 1280 l0 -100 55 0 c30 0 55 5 55 10 0 6 -18 10 -41 10 -39 0
-40 1 -37 33 3 29 7 33 43 38 l40 5 -40 5 c-39 4 -40 5 -40 44 0 39 1 40 40
46 37 6 36 6 -17 8 l-58 1 0 -100z"/>
<path d="M4320 1280 c0 -60 4 -100 10 -100 6 0 10 18 10 39 0 22 4 43 10 46
18 11 48 -14 60 -50 15 -45 34 -47 25 -2 -4 17 -11 37 -16 43 -6 7 -3 23 8 42
14 25 15 34 5 56 -10 23 -17 26 -62 26 l-50 0 0 -100z m87 63 c13 -19 12 -24
-7 -43 -28 -28 -54 -22 -58 13 -2 16 -1 35 2 44 8 20 46 12 63 -14z"/>
<path d="M4540 1280 c0 -55 4 -100 9 -100 6 0 11 15 13 33 3 28 8 34 43 45 46
15 55 26 55 69 0 39 -21 53 -79 53 l-41 0 0 -100z m84 74 c9 -8 16 -24 16 -34
0 -40 -61 -68 -74 -34 -23 59 19 108 58 68z"/>
<path d="M4701 1287 c-35 -103 -35 -107 -20 -107 5 0 15 14 20 30 9 26 16 30
46 30 29 0 36 -5 46 -30 6 -16 18 -30 25 -30 8 0 12 6 9 13 -2 6 -17 51 -33
99 -39 118 -53 117 -93 -5z m65 5 c6 -30 5 -32 -20 -32 -24 0 -26 3 -21 23 4
12 9 30 12 41 7 24 21 9 29 -32z"/>
<path d="M4860 1280 c0 -60 4 -100 10 -100 6 0 10 18 10 40 0 26 5 43 14 46
24 9 54 -14 61 -46 6 -28 21 -47 31 -38 2 3 -3 24 -11 47 -10 30 -12 48 -5 61
14 25 13 63 -2 78 -7 7 -34 12 -60 12 l-48 0 0 -100z m81 80 c28 -15 25 -58
-5 -72 -37 -16 -56 -4 -56 35 0 48 18 59 61 37z"/>
<path d="M5025 1371 l30 -6 3 -93 c1 -50 7 -92 12 -92 5 0 11 42 12 92 l3 93
30 6 c19 4 1 7 -45 7 -46 0 -64 -3 -45 -7z"/>
<path d="M5200 1320 c19 -37 30 -75 30 -100 0 -22 5 -40 10 -40 6 0 10 19 10
42 0 28 10 59 30 95 33 58 35 63 20 63 -5 0 -19 -18 -30 -40 -11 -22 -24 -40
-29 -40 -4 0 -16 18 -26 40 -10 22 -24 40 -32 40 -9 0 -5 -17 17 -60z"/>
</g>
</svg>
