<?xml version="1.0" standalone="no"?>
<!DOCTYPE svg PUBLIC "-//W3C//DTD SVG 20010904//EN"
 "http://www.w3.org/TR/2001/REC-SVG-20010904/DTD/svg10.dtd">
<svg version="1.0" xmlns="http://www.w3.org/2000/svg"
 width="102.000000pt" height="108.000000pt" viewBox="0 0 306.000000 324.000000"
 preserveAspectRatio="xMidYMid meet">

<g transform="translate(0.000000,324.000000) scale(0.100000,-0.100000)"
fill="#000000" stroke="none">
<path d="M843 2686 c-85 -64 -232 -220 -290 -306 -62 -93 -95 -158 -134 -262
-50 -137 -59 -218 -59 -547 0 -390 -13 -366 205 -375 66 -3 135 -5 153 -6 l32
0 0 -367 c0 -342 1 -370 19 -399 27 -44 83 -68 161 -69 88 0 136 24 162 82 17
40 19 67 16 398 -3 310 -1 355 12 356 252 9 308 13 322 20 38 20 49 64 46 177
-2 87 -6 107 -18 107 -12 0 -16 -22 -20 -118 -4 -103 -8 -121 -25 -133 -16
-12 -62 -14 -245 -12 l-225 3 -5 250 c-4 213 -7 250 -20 250 -13 0 -16 -37
-20 -250 l-5 -250 -232 -3 c-222 -2 -234 -1 -253 18 -19 19 -20 32 -20 335 0
363 6 410 74 572 55 130 136 251 242 362 88 93 182 171 204 171 25 0 157 -110
247 -204 111 -117 184 -237 236 -388 4 -10 14 -18 23 -18 26 0 12 50 -51 175
-62 125 -150 241 -251 331 -87 77 -182 144 -205 144 -9 0 -43 -20 -76 -44z
m225 -1864 c1 -248 -1 -369 -9 -383 -34 -64 -224 -64 -258 0 -8 14 -10 135 -9
383 l3 363 40 5 c22 3 83 3 135 0 l95 -5 3 -363z"/>
<path d="M2348 2656 c-188 -77 -316 -219 -348 -385 -17 -90 8 -229 61 -332 16
-32 29 -66 29 -75 0 -9 -13 -60 -30 -113 -16 -53 -36 -127 -45 -166 -24 -106
-26 -107 -46 -15 -25 112 -77 219 -132 273 -81 78 -242 142 -344 135 -44 -3
-48 -5 -57 -36 -12 -44 6 -199 32 -274 59 -168 189 -257 387 -266 55 -2 103
-7 106 -11 3 -3 0 -49 -7 -101 -18 -133 -17 -453 1 -593 8 -63 26 -156 39
-206 l23 -91 -226 -2 c-206 -3 -226 -5 -229 -21 -3 -16 25 -17 491 -17 271 0
497 3 500 7 4 3 2 12 -4 20 -9 10 -63 13 -254 13 l-243 0 -21 84 c-52 207 -64
391 -31 464 40 89 53 99 127 106 146 15 242 57 321 140 74 78 109 170 115 300
2 58 1 59 -28 68 -45 14 -175 2 -238 -22 -66 -25 -155 -102 -194 -167 -35 -60
-60 -145 -69 -233 -7 -72 -34 -140 -56 -140 -12 0 -4 154 17 305 19 134 45
251 97 423 l43 144 57 23 c107 44 218 137 260 219 58 114 80 251 59 372 -15
85 -65 194 -89 194 -9 0 -42 -11 -74 -24z m101 -81 c29 -73 39 -222 22 -307
-17 -78 -62 -165 -114 -220 -45 -46 -183 -136 -193 -125 -4 3 21 88 55 189 34
101 61 187 61 191 0 5 -8 7 -17 5 -12 -2 -36 -57 -84 -198 l-67 -195 -30 65
c-90 197 -61 372 85 516 64 64 209 148 242 142 9 -2 27 -30 40 -63z m-834
-651 c157 -40 271 -159 310 -325 16 -70 19 -113 8 -107 -5 2 -53 50 -108 108
-55 58 -105 106 -112 108 -35 9 -3 -40 93 -143 59 -62 105 -116 103 -121 -2
-4 -29 -6 -61 -5 -228 9 -358 150 -375 407 l-6 94 44 0 c25 0 72 -7 104 -16z
m915 -432 c0 -51 -25 -142 -54 -200 -28 -55 -96 -121 -155 -151 -72 -37 -201
-64 -201 -42 0 5 47 60 105 123 58 62 105 116 105 121 0 28 -51 -9 -147 -110
-110 -116 -112 -118 -112 -85 -1 42 42 171 73 220 27 44 92 104 135 127 45 23
97 33 179 34 l72 1 0 -38z"/>
</g>
</svg>
