<?xml version="1.0" standalone="no"?>
<!DOCTYPE svg PUBLIC "-//W3C//DTD SVG 20010904//EN"
 "http://www.w3.org/TR/2001/REC-SVG-20010904/DTD/svg10.dtd">
<svg version="1.0" xmlns="http://www.w3.org/2000/svg"
 width="106.000000pt" height="107.500000pt" viewBox="0 0 318.000000 322.000000"
 preserveAspectRatio="xMidYMid meet">

<g transform="translate(0.000000,322.000000) scale(0.100000,-0.100000)"
fill="#000000" stroke="none">
<path d="M674 2710 c-40 -16 -93 -247 -93 -405 -1 -49 3 -96 8 -104 8 -13 27
-13 136 -1 115 12 128 11 143 -3 25 -26 5 -67 -48 -97 -37 -20 -60 -25 -135
-26 -71 -2 -91 -5 -93 -17 -5 -22 44 -161 72 -205 79 -126 245 -203 382 -178
42 8 111 68 140 121 10 19 22 35 26 35 12 0 66 -100 98 -183 29 -75 61 -196
75 -284 l7 -42 -187 -3 -187 -3 -24 -28 c-22 -26 -24 -37 -24 -128 0 -108 8
-135 45 -149 18 -7 26 -21 34 -62 5 -29 30 -155 54 -280 67 -347 42 -330 508
-326 l326 3 37 28 c20 16 44 39 52 53 9 14 36 137 63 292 l46 269 38 35 37 35
0 91 c0 169 -6 172 -294 172 l-206 0 7 48 c14 113 86 307 140 377 15 20 15 20
31 -5 40 -59 106 -119 154 -140 43 -18 65 -22 128 -18 98 6 178 47 256 131 80
86 163 260 130 273 -7 3 -69 1 -137 -4 -130 -9 -159 -4 -159 28 0 30 26 37
162 45 76 4 134 12 145 20 13 10 18 31 21 83 6 108 -27 360 -53 402 -16 25
-401 -22 -432 -53 -8 -7 -28 -76 -45 -153 -32 -146 -39 -164 -69 -164 -27 0
-31 32 -21 140 6 52 8 98 5 103 -2 4 3 10 11 13 21 8 20 24 -1 24 -26 0 -137
-77 -186 -129 -102 -109 -143 -271 -101 -394 16 -48 101 -137 130 -137 21 0
18 -12 -26 -88 -55 -96 -97 -213 -112 -316 l-12 -86 -123 0 -122 0 -7 38 c-31
182 -72 308 -140 429 -19 34 -34 66 -34 71 0 5 18 12 41 16 80 13 146 62 185
136 25 50 31 200 10 271 -18 66 -56 139 -99 193 -29 36 -140 126 -156 126 -4
0 -13 -57 -19 -127 -7 -69 -17 -132 -23 -140 -14 -16 -46 -17 -52 0 -3 6 -2
74 1 149 6 170 3 176 -94 201 -124 32 -323 46 -370 27z m287 -46 c46 -9 98
-22 116 -29 l33 -14 -7 -149 c-6 -144 -5 -150 16 -171 37 -37 91 -23 110 29 6
17 13 71 17 121 4 49 10 89 14 89 12 0 100 -92 132 -137 48 -71 71 -146 71
-243 1 -101 -22 -163 -75 -203 -42 -32 -109 -57 -154 -57 -30 0 -36 -5 -59
-50 -35 -69 -89 -126 -132 -141 -77 -25 -198 13 -285 90 -48 43 -114 159 -120
211 -3 24 -1 25 67 28 89 4 167 37 189 81 35 66 8 124 -57 125 -17 0 -77 -4
-131 -8 l-99 -9 7 104 c8 111 35 252 60 312 l15 37 94 0 c52 0 132 -7 178 -16z
m1544 -135 c20 -31 36 -141 42 -275 l6 -152 -59 -6 c-32 -3 -96 -8 -142 -12
-99 -7 -126 -24 -124 -75 0 -22 8 -40 24 -52 20 -17 34 -18 128 -12 58 3 113
9 123 11 63 19 -57 -189 -155 -267 -72 -56 -112 -72 -193 -73 -59 -1 -77 3
-116 26 -53 31 -90 72 -120 130 l-20 39 38 43 c21 23 103 116 182 207 80 90
153 174 165 187 13 15 16 26 9 33 -14 14 -26 2 -218 -216 -92 -104 -178 -201
-190 -213 l-22 -24 -41 26 c-48 30 -85 77 -102 130 -23 73 9 210 70 295 29 39
123 121 140 121 5 0 6 -47 3 -104 -5 -96 -4 -105 16 -125 26 -26 51 -27 84 -1
20 16 30 38 42 98 48 222 44 210 75 221 30 10 202 38 275 44 22 2 48 4 57 5 9
1 20 -3 23 -9z m-353 -1266 c15 -13 18 -32 18 -108 0 -57 -4 -95 -12 -103 -9
-9 -150 -12 -575 -12 -649 0 -583 -13 -583 117 0 55 5 85 16 101 l15 22 551 0
c499 0 553 -2 570 -17z m-52 -269 c0 -3 -20 -124 -45 -267 -47 -271 -54 -290
-109 -331 -26 -20 -42 -21 -337 -24 -289 -3 -312 -2 -353 17 -24 10 -52 31
-62 46 -15 24 -82 343 -109 523 l-6 42 510 0 c281 0 511 -3 511 -6z"/>
</g>
</svg>
