<?xml version="1.0" standalone="no"?>
<!DOCTYPE svg PUBLIC "-//W3C//DTD SVG 20010904//EN"
 "http://www.w3.org/TR/2001/REC-SVG-20010904/DTD/svg10.dtd">
<svg version="1.0" xmlns="http://www.w3.org/2000/svg"
 width="107.500000pt" height="107.500000pt" viewBox="0 0 322.000000 322.000000"
 preserveAspectRatio="xMidYMid meet">

<g transform="translate(0.000000,322.000000) scale(0.100000,-0.100000)"
fill="#000000" stroke="none">
<path d="M1509 2648 c-21 -24 -133 -158 -248 -298 -139 -167 -211 -262 -211
-277 0 -47 32 -63 125 -63 47 0 85 -4 85 -8 0 -5 -28 -42 -62 -83 -34 -41
-117 -140 -185 -221 -107 -127 -123 -151 -123 -182 0 -49 19 -56 149 -56 61 0
111 -3 111 -6 0 -3 -37 -49 -83 -102 -106 -124 -236 -279 -265 -316 -29 -37
-29 -80 0 -100 19 -14 67 -16 325 -16 l303 0 1 -32 c1 -18 5 -148 8 -288 l6
-255 132 -3 133 -3 2 288 3 288 30 0 c30 0 30 -1 35 -62 4 -47 10 -66 25 -77
17 -13 87 -15 491 -16 l471 0 21 23 c22 23 22 26 22 426 0 243 -4 410 -10 421
-19 35 -64 40 -356 40 l-283 0 -135 165 c-75 91 -136 167 -136 170 0 3 40 5
89 5 82 0 91 2 105 22 9 12 16 29 16 38 0 8 -48 74 -106 145 -58 72 -131 161
-162 200 -111 136 -216 260 -226 267 -27 19 -61 7 -97 -34z m91 -10 c27 -29
383 -464 429 -524 50 -66 41 -74 -79 -74 -122 0 -130 -8 -74 -79 79 -98 193
-237 213 -258 12 -12 21 -25 21 -28 0 -3 -56 -5 -124 -5 -130 0 -180 -10 -196
-40 -6 -11 -10 -151 -10 -344 l0 -326 -482 2 c-442 3 -483 4 -483 20 0 13 134
180 358 445 48 56 36 62 -115 65 -117 3 -133 5 -136 21 -2 10 35 62 95 134
242 288 294 354 291 371 -3 14 -17 17 -88 20 -154 4 -159 12 -72 119 192 238
415 503 423 503 4 0 18 -10 29 -22z m1158 -1024 l22 -15 0 -389 0 -389 -22
-15 c-20 -14 -79 -16 -458 -15 -239 1 -446 4 -460 8 l-25 7 -3 399 c-2 367 -1
401 15 413 13 9 122 12 463 12 387 0 448 -2 468 -16z m-1083 -969 l0 -270 -95
0 -95 0 -3 273 -2 273 97 -3 98 -3 0 -270z"/>
<path d="M2285 1428 c-3 -7 -6 -53 -7 -103 l-3 -90 -95 -5 c-53 -3 -95 -9 -95
-15 0 -6 42 -12 95 -15 l95 -5 3 -108 c2 -96 5 -108 20 -105 15 3 17 18 20
111 l3 107 94 0 c78 0 95 3 95 15 0 12 -15 15 -79 15 -113 0 -111 -2 -111 89
0 42 -3 86 -6 99 -7 24 -22 29 -29 10z"/>
</g>
</svg>
